<svg width="165" xmlns="http://www.w3.org/2000/svg" height="145" fill="none"><defs><clipPath id="a" class="frame-clip frame-clip-def"><rect rx="0" ry="0" width="165" height="145" transform="matrix(1.000000, 0.000000, 0.000000, 1.000000, 0.000000, 0.000000)"/></clipPath></defs><g clip-path="url(#a)"><g class="fills"><rect width="165" height="145" class="frame-background" transform="matrix(1.000000, 0.000000, 0.000000, 1.000000, 0.000000, 0.000000)" style="fill: rgb(255, 255, 255); fill-opacity: 1;" ry="0" rx="0"/></g><g class="frame-children"><path d="M34.786,96.786L39.357,96.214L42.214,94.500L47.357,94.500L52.500,93.357L55.357,92.214L59.357,88.214L64.500,87.643L71.357,84.214L81.072,84.214" class="fills"/><g class="strokes"><path d="M34.786,96.786L39.357,96.214L42.214,94.500L47.357,94.500L52.500,93.357L55.357,92.214L59.357,88.214L64.500,87.643L71.357,84.214L81.072,84.214" style="fill: none; stroke-width: 2; stroke: rgb(0, 0, 0); stroke-opacity: 1;" class="stroke-shape"/></g><path d="M35.929,98.500L38.214,96.214L42.214,95.643L44.500,94.500L46.214,94.500L54.214,90.500L70.214,85.357L74.214,83.643L77.072,83.643L81.072,82.500L88.500,81.357L91.357,80.214L112.500,80.214L119.357,81.929L121.072,84.214L123.357,84.786L123.357,85.929L126.214,89.929L127.357,92.786" class="fills"/><g class="strokes"><path d="M35.929,98.500L38.214,96.214L42.214,95.643L44.500,94.500L46.214,94.500L54.214,90.500L70.214,85.357L74.214,83.643L77.072,83.643L81.072,82.500L88.500,81.357L91.357,80.214L112.500,80.214L119.357,81.929L121.072,84.214L123.357,84.786L123.357,85.929L126.214,89.929L127.357,92.786" style="fill: none; stroke-width: 2; stroke: rgb(0, 0, 0); stroke-opacity: 1;" class="stroke-shape"/></g><path d="M31.929,96.214L34.214,96.214L48.500,93.357L53.072,91.643L62.214,86.500L65.072,85.357L66.214,85.357L82.214,77.357L100.500,77.357L103.357,76.214L122.214,76.786L125.072,77.929L127.357,77.929L127.357,79.071L129.072,81.929L129.072,83.071L131.357,84.786L131.357,85.929L132.500,87.071" class="fills"/><g class="strokes"><path d="M31.929,96.214L34.214,96.214L48.500,93.357L53.072,91.643L62.214,86.500L65.072,85.357L66.214,85.357L82.214,77.357L100.500,77.357L103.357,76.214L122.214,76.786L125.072,77.929L127.357,77.929L127.357,79.071L129.072,81.929L129.072,83.071L131.357,84.786L131.357,85.929L132.500,87.071" style="fill: none; stroke-width: 2; stroke: rgb(0, 0, 0); stroke-opacity: 1;" class="stroke-shape"/></g><path d="M39.357,90.500L39.357,95.071L38.786,99.071L36.500,104.214L34.786,113.929L38.214,104.214L40.500,92.214L40.500,89.357L40.500,91.071L35.929,104.214L31.929,109.929L24.500,124.214L25.072,121.357L32.500,109.357L38.214,89.357L38.214,83.643L38.214,84.786L35.929,91.071L32.500,97.929L29.643,108.214L33.072,101.357L40.500,89.357L41.072,85.357L41.072,84.214L39.929,88.214L34.786,100.214L30.786,105.929L32.500,98.500L36.500,88.214L40.500,70.500L40.500,67.643L32.500,80.786L27.929,89.929L17.643,103.071L20.500,93.357L24.500,84.214L26.214,75.643L28.500,69.357L28.500,66.500L25.643,76.214L19.929,85.929L14.786,96.786L9.643,104.786L7.929,108.786L8.500,106.500L18.214,90.500L21.072,82.500L24.500,75.643L23.929,87.071L20.500,95.071L17.643,108.786L16.500,112.214L22.214,103.643L27.357,94.500L30.214,85.357L21.643,105.929L17.643,112.214L16.500,116.214L17.072,113.357L20.500,107.643L25.072,92.214L27.357,87.643L27.357,86.500L27.357,88.214L18.786,109.929L17.643,113.929L16.500,115.071L20.500,103.643L24.500,94.500L25.072,86.500L22.786,96.786L15.929,112.214L7.929,125.929L10.214,124.214L27.357,105.357L32.500,101.357L36.500,96.214L35.929,100.214L25.643,123.071L24.500,127.071L27.357,120.214L34.214,108.214L37.072,99.643L40.500,93.357L41.072,89.357L39.929,96.214L39.929,99.071L43.357,85.357L42.786,85.357L29.643,99.071L16.500,108.214L12.500,112.214L11.929,112.214L12.500,112.214L17.072,102.500L21.072,91.643L26.214,79.643L30.214,65.357L27.929,76.786L20.500,92.214L15.929,103.071L14.786,108.786L13.643,109.929L17.072,97.357L19.357,93.357L28.500,68.214L28.500,72.786L24.500,83.071L22.786,91.071L19.929,100.786L22.214,95.643L27.357,75.643L28.500,65.357L25.643,65.929L20.500,72.786L7.929,84.786L1.643,88.786L-1.214,89.929L0.500,84.214L4.500,77.357L8.500,73.357L9.072,72.214L11.357,77.929L12.500,84.786L12.500,103.071L18.214,99.643L23.357,93.357L35.357,81.357L34.786,85.929L32.500,92.786L31.929,100.214" class="fills"/><g class="strokes"><path d="M39.357,90.500L39.357,95.071L38.786,99.071L36.500,104.214L34.786,113.929L38.214,104.214L40.500,92.214L40.500,89.357L40.500,91.071L35.929,104.214L31.929,109.929L24.500,124.214L25.072,121.357L32.500,109.357L38.214,89.357L38.214,83.643L38.214,84.786L35.929,91.071L32.500,97.929L29.643,108.214L33.072,101.357L40.500,89.357L41.072,85.357L41.072,84.214L39.929,88.214L34.786,100.214L30.786,105.929L32.500,98.500L36.500,88.214L40.500,70.500L40.500,67.643L32.500,80.786L27.929,89.929L17.643,103.071L20.500,93.357L24.500,84.214L26.214,75.643L28.500,69.357L28.500,66.500L25.643,76.214L19.929,85.929L14.786,96.786L9.643,104.786L7.929,108.786L8.500,106.500L18.214,90.500L21.072,82.500L24.500,75.643L23.929,87.071L20.500,95.071L17.643,108.786L16.500,112.214L22.214,103.643L27.357,94.500L30.214,85.357L21.643,105.929L17.643,112.214L16.500,116.214L17.072,113.357L20.500,107.643L25.072,92.214L27.357,87.643L27.357,86.500L27.357,88.214L18.786,109.929L17.643,113.929L16.500,115.071L20.500,103.643L24.500,94.500L25.072,86.500L22.786,96.786L15.929,112.214L7.929,125.929L10.214,124.214L27.357,105.357L32.500,101.357L36.500,96.214L35.929,100.214L25.643,123.071L24.500,127.071L27.357,120.214L34.214,108.214L37.072,99.643L40.500,93.357L41.072,89.357L39.929,96.214L39.929,99.071L43.357,85.357L42.786,85.357L29.643,99.071L16.500,108.214L12.500,112.214L11.929,112.214L12.500,112.214L17.072,102.500L21.072,91.643L26.214,79.643L30.214,65.357L27.929,76.786L20.500,92.214L15.929,103.071L14.786,108.786L13.643,109.929L17.072,97.357L19.357,93.357L28.500,68.214L28.500,72.786L24.500,83.071L22.786,91.071L19.929,100.786L22.214,95.643L27.357,75.643L28.500,65.357L25.643,65.929L20.500,72.786L7.929,84.786L1.643,88.786L-1.214,89.929L0.500,84.214L4.500,77.357L8.500,73.357L9.072,72.214L11.357,77.929L12.500,84.786L12.500,103.071L18.214,99.643L23.357,93.357L35.357,81.357L34.786,85.929L32.500,92.786L31.929,100.214" style="fill: none; stroke-width: 2; stroke: rgb(0, 0, 0); stroke-opacity: 1;" class="stroke-shape"/></g><path d="M38.786,80.214L40.500,79.643L76.500,79.643L79.357,77.357L84.500,76.214L93.072,73.357L95.357,73.357" class="fills"/><g class="strokes"><path d="M38.786,80.214L40.500,79.643L76.500,79.643L79.357,77.357L84.500,76.214L93.072,73.357L95.357,73.357" style="fill: none; stroke-width: 2; stroke: rgb(0, 0, 0); stroke-opacity: 1;" class="stroke-shape"/></g><path d="M42.786,76.214L43.357,74.500L45.072,72.214L48.500,70.500L73.072,70.500L76.500,69.357L79.357,69.357L81.072,68.214L89.072,68.214L91.357,67.643L91.357,66.500L92.500,66.500L94.214,64.214L97.072,63.643L102.214,63.643L104.500,62.500L122.214,62.500L127.357,63.071L130.214,64.214L134.214,64.214L136.500,64.786L139.357,68.786L140.500,71.071L140.500,72.214" class="fills"/><g class="strokes"><path d="M42.786,76.214L43.357,74.500L45.072,72.214L48.500,70.500L73.072,70.500L76.500,69.357L79.357,69.357L81.072,68.214L89.072,68.214L91.357,67.643L91.357,66.500L92.500,66.500L94.214,64.214L97.072,63.643L102.214,63.643L104.500,62.500L122.214,62.500L127.357,63.071L130.214,64.214L134.214,64.214L136.500,64.786L139.357,68.786L140.500,71.071L140.500,72.214" style="fill: none; stroke-width: 2; stroke: rgb(0, 0, 0); stroke-opacity: 1;" class="stroke-shape"/></g><path d="M147.357,56.214L146.786,61.929L142.786,76.786L139.929,85.929L136.500,93.929L134.786,103.071L133.643,104.214L133.643,105.929L142.214,94.500L145.072,87.643L148.500,81.357L148.500,77.357L148.500,79.071L145.643,87.071L140.500,93.929L136.500,100.214L135.929,104.786L142.214,89.357L152.500,67.643L152.500,65.357L152.500,69.929L149.643,80.786L145.643,92.214L143.929,104.214L143.929,108.214L150.214,100.214L156.500,90.500L160.500,82.500L162.214,76.214L161.643,92.214L161.643,115.071L162.214,111.643L166.214,100.214L170.214,85.357L170.214,83.643L170.214,87.071L167.929,93.929L160.500,105.929L160.500,107.071L160.500,83.643L159.929,77.357L157.643,77.357L153.643,84.214L146.786,99.071L146.786,77.357L146.786,80.214L142.786,92.786L141.643,99.071L141.643,103.071L143.357,102.500L156.500,87.643L157.072,84.214L158.214,82.500L156.500,92.786L151.929,107.071L146.786,120.214" class="fills"/><g class="strokes"><path d="M147.357,56.214L146.786,61.929L142.786,76.786L139.929,85.929L136.500,93.929L134.786,103.071L133.643,104.214L133.643,105.929L142.214,94.500L145.072,87.643L148.500,81.357L148.500,77.357L148.500,79.071L145.643,87.071L140.500,93.929L136.500,100.214L135.929,104.786L142.214,89.357L152.500,67.643L152.500,65.357L152.500,69.929L149.643,80.786L145.643,92.214L143.929,104.214L143.929,108.214L150.214,100.214L156.500,90.500L160.500,82.500L162.214,76.214L161.643,92.214L161.643,115.071L162.214,111.643L166.214,100.214L170.214,85.357L170.214,83.643L170.214,87.071L167.929,93.929L160.500,105.929L160.500,107.071L160.500,83.643L159.929,77.357L157.643,77.357L153.643,84.214L146.786,99.071L146.786,77.357L146.786,80.214L142.786,92.786L141.643,99.071L141.643,103.071L143.357,102.500L156.500,87.643L157.072,84.214L158.214,82.500L156.500,92.786L151.929,107.071L146.786,120.214" style="fill: none; stroke-width: 2; stroke: rgb(0, 0, 0); stroke-opacity: 1;" class="stroke-shape"/></g></g></g></svg>